<?xml version="1.0" encoding="UTF-8"?>
<svg xmlns="http://www.w3.org/2000/svg" xmlns:xlink="http://www.w3.org/1999/xlink" width="84.748232" height="72.641342" viewBox="0 0 84.748232 72.641342">
<rect x="-8.474823" y="-7.264134" width="101.697878" height="87.16961" fill="rgb(0%, 50.196078%, 0%)" fill-opacity="1"/>
<path fill="none" stroke-width="0.003" stroke-linecap="butt" stroke-linejoin="miter" stroke="rgb(100%, 0%, 0%)" stroke-opacity="1" stroke-miterlimit="10" d="M 0.539973 0.621203 L 0.54578 0.62088 L 0.551496 0.619858 L 0.557119 0.618245 L 0.562558 0.615933 L 0.567812 0.613083 L 0.572744 0.609587 L 0.5774 0.605554 L 0.581686 0.601037 L 0.585604 0.596036 L 0.589061 0.590605 L 0.592011 0.584797 L 0.5945 0.578721 L 0.596436 0.572322 L 0.597865 0.565815 L 0.598694 0.559093 L 0.598971 0.552371 L 0.598694 0.545596 L 0.597865 0.538928 L 0.596436 0.532367 L 0.5945 0.526022 L 0.592011 0.519892 L 0.589061 0.514138 L 0.585604 0.508707 L 0.581686 0.503706 L 0.5774 0.499135 L 0.572744 0.495155 L 0.567812 0.49166 L 0.562558 0.488756 L 0.557119 0.486498 L 0.551496 0.484831 L 0.54578 0.483863 L 0.539973 0.48354 L 0.534211 0.483863 L 0.528496 0.484831 L 0.522872 0.486498 L 0.517387 0.488756 L 0.512179 0.49166 L 0.507201 0.495155 L 0.502546 0.499135 L 0.498259 0.503706 L 0.494387 0.508707 L 0.49093 0.514138 L 0.487934 0.519892 L 0.485491 0.526022 L 0.483509 0.532367 L 0.482127 0.538928 L 0.481251 0.545596 L 0.480974 0.552371 L 0.481251 0.559093 L 0.482127 0.565815 L 0.483509 0.572322 L 0.485491 0.578721 L 0.487934 0.584797 L 0.49093 0.590605 L 0.494387 0.596036 L 0.498259 0.601037 L 0.502546 0.605554 L 0.507201 0.609587 L 0.512179 0.613083 L 0.517387 0.615933 L 0.522872 0.618245 L 0.528496 0.619858 L 0.534211 0.62088 L 0.539973 0.621203 M 0.539973 0.621203 L 0.547808 0.620773 L 0.555506 0.619428 L 0.563111 0.61717 L 0.570486 0.614105 L 0.577538 0.610233 L 0.584221 0.605554 L 0.59049 0.600123 L 0.596297 0.593993 L 0.601552 0.587217 L 0.606207 0.579904 L 0.610217 0.572053 L 0.613582 0.563825 L 0.616209 0.555221 L 0.618099 0.546402 L 0.619251 0.537368 L 0.61962 0.52828 L 0.619251 0.519139 L 0.618099 0.510158 L 0.616209 0.501286 L 0.613582 0.492736 L 0.610217 0.484454 L 0.606207 0.476657 L 0.601552 0.469344 L 0.596297 0.462568 L 0.59049 0.456438 L 0.584221 0.451007 L 0.577538 0.446328 L 0.570486 0.442403 L 0.563111 0.439337 L 0.555506 0.437133 L 0.547808 0.435788 L 0.539973 0.435358 L 0.532183 0.435788 L 0.524439 0.437133 L 0.51688 0.439337 L 0.509505 0.442403 L 0.502453 0.446328 L 0.495724 0.451007 L 0.489455 0.456438 L 0.483648 0.462568 L 0.478393 0.469344 L 0.473738 0.476657 L 0.469728 0.484454 L 0.466409 0.492736 L 0.463782 0.501286 L 0.461846 0.510158 L 0.46074 0.519139 L 0.460325 0.52828 L 0.46074 0.537368 L 0.461846 0.546402 L 0.463782 0.555221 L 0.466409 0.563825 L 0.469728 0.572053 L 0.473738 0.579904 L 0.478393 0.587217 L 0.483648 0.593993 L 0.489455 0.600123 L 0.495724 0.605554 L 0.502453 0.610233 L 0.509505 0.614105 L 0.51688 0.61717 L 0.524439 0.619428 L 0.532183 0.620773 L 0.539973 0.621203 M 0.558824 0.67772 L 0.569333 0.677074 L 0.579796 0.6753 L 0.590029 0.672288 L 0.599939 0.668148 L 0.60948 0.662878 L 0.61856 0.656533 L 0.627041 0.649219 L 0.634831 0.640938 L 0.641929 0.63185 L 0.648198 0.621956 L 0.653636 0.611362 L 0.658153 0.600284 L 0.661703 0.588669 L 0.664284 0.576731 L 0.665805 0.564524 L 0.666358 0.552264 L 0.665805 0.53995 L 0.664284 0.527796 L 0.661703 0.515859 L 0.658153 0.504243 L 0.653636 0.493112 L 0.648198 0.482572 L 0.641929 0.472678 L 0.634831 0.463536 L 0.627041 0.455308 L 0.61856 0.447941 L 0.60948 0.441596 L 0.599939 0.43638 L 0.590029 0.432185 L 0.579796 0.429228 L 0.569333 0.4274 L 0.558824 0.426808 L 0.548269 0.4274 L 0.537852 0.429228 L 0.52762 0.432185 L 0.517664 0.43638 L 0.508123 0.441596 L 0.499089 0.447941 L 0.490608 0.455308 L 0.482772 0.463536 L 0.475674 0.472678 L 0.469405 0.482572 L 0.463966 0.493112 L 0.459495 0.504243 L 0.4559 0.515859 L 0.453365 0.527796 L 0.451798 0.53995 L 0.451291 0.552264 L 0.451798 0.564524 L 0.453365 0.576731 L 0.4559 0.588669 L 0.459495 0.600284 L 0.463966 0.611362 L 0.469405 0.621956 L 0.475674 0.63185 L 0.482772 0.640938 L 0.490608 0.649219 L 0.499089 0.656533 L 0.508123 0.662878 L 0.517664 0.668148 L 0.52762 0.672288 L 0.537852 0.6753 L 0.548269 0.677074 L 0.558824 0.67772 M 0.521305 0.717782 L 0.535548 0.716975 L 0.549652 0.714501 L 0.56348 0.710468 L 0.576893 0.704876 L 0.589752 0.697778 L 0.601967 0.689227 L 0.613398 0.679333 L 0.623953 0.668148 L 0.63354 0.655833 L 0.642021 0.642497 L 0.64935 0.628247 L 0.655434 0.613244 L 0.660228 0.597596 L 0.663685 0.581463 L 0.665805 0.565008 L 0.666496 0.548392 L 0.665805 0.53183 L 0.663685 0.515375 L 0.660228 0.499242 L 0.655434 0.483594 L 0.64935 0.468591 L 0.642021 0.454341 L 0.63354 0.441004 L 0.623953 0.42869 L 0.613398 0.417505 L 0.601967 0.407611 L 0.589752 0.39906 L 0.576893 0.391962 L 0.56348 0.38637 L 0.549652 0.382337 L 0.535548 0.379863 L 0.521305 0.379056 L 0.507109 0.379863 L 0.493004 0.382337 L 0.479177 0.38637 L 0.465764 0.391962 L 0.452904 0.39906 L 0.44069 0.407611 L 0.429259 0.417505 L 0.418703 0.42869 L 0.409116 0.441004 L 0.400635 0.454341 L 0.393307 0.468591 L 0.387222 0.483594 L 0.382429 0.499242 L 0.378972 0.515375 L 0.376852 0.53183 L 0.37616 0.548392 L 0.376852 0.565008 L 0.378972 0.581463 L 0.382429 0.597596 L 0.387222 0.613244 L 0.393307 0.628247 L 0.400635 0.642497 L 0.409116 0.655833 L 0.418703 0.668148 L 0.429259 0.679333 L 0.44069 0.689227 L 0.452904 0.697778 L 0.465764 0.704876 L 0.479177 0.710468 L 0.493004 0.714501 L 0.507109 0.716975 L 0.521305 0.717782 M 0.561636 0.740958 L 0.580857 0.739883 L 0.599893 0.736603 L 0.618514 0.731118 L 0.636628 0.723589 L 0.654005 0.713964 L 0.670506 0.702456 L 0.685947 0.689066 L 0.70019 0.674009 L 0.713142 0.657393 L 0.724573 0.639379 L 0.734483 0.620127 L 0.742687 0.599854 L 0.749186 0.578721 L 0.753841 0.556942 L 0.756653 0.534787 L 0.757621 0.512363 L 0.756653 0.489939 L 0.753841 0.46773 L 0.749186 0.446005 L 0.742687 0.424872 L 0.734483 0.404599 L 0.724573 0.385348 L 0.713142 0.367333 L 0.70019 0.350663 L 0.685947 0.335606 L 0.670506 0.32227 L 0.654005 0.310709 L 0.636628 0.301137 L 0.618514 0.293555 L 0.599893 0.288124 L 0.580857 0.284843 L 0.561636 0.283714 L 0.542415 0.284843 L 0.523425 0.288124 L 0.504758 0.293555 L 0.486644 0.301137 L 0.469267 0.310709 L 0.452766 0.32227 L 0.437325 0.335606 L 0.423082 0.350663 L 0.410176 0.367333 L 0.398699 0.385348 L 0.388836 0.404599 L 0.380585 0.424872 L 0.374132 0.446005 L 0.369431 0.46773 L 0.366619 0.489939 L 0.365697 0.512363 L 0.366619 0.534787 L 0.369431 0.556942 L 0.374132 0.578721 L 0.380585 0.599854 L 0.388836 0.620127 L 0.398699 0.639379 L 0.410176 0.657393 L 0.423082 0.674009 L 0.437325 0.689066 L 0.452766 0.702456 L 0.469267 0.713964 L 0.486644 0.723589 L 0.504758 0.731118 L 0.523425 0.736603 L 0.542415 0.739883 L 0.561636 0.740958 M 0.549698 0.899808 L 0.575648 0.898303 L 0.601322 0.893839 L 0.626488 0.886472 L 0.650917 0.876309 L 0.674424 0.863349 L 0.696687 0.847755 L 0.71752 0.82974 L 0.736741 0.809413 L 0.75421 0.786936 L 0.769651 0.76263 L 0.783018 0.736657 L 0.794126 0.709285 L 0.802838 0.680731 L 0.809152 0.65137 L 0.812978 0.621418 L 0.814268 0.591143 L 0.812978 0.560868 L 0.809152 0.530915 L 0.802838 0.501555 L 0.794126 0.473054 L 0.783018 0.445629 L 0.769651 0.419656 L 0.75421 0.39535 L 0.736741 0.372926 L 0.71752 0.352545 L 0.696687 0.334531 L 0.674424 0.318936 L 0.650917 0.305977 L 0.626488 0.295813 L 0.601322 0.288446 L 0.575648 0.283983 L 0.549698 0.282531 L 0.523748 0.283983 L 0.498075 0.288446 L 0.472908 0.295813 L 0.448479 0.305977 L 0.424972 0.318936 L 0.402709 0.334531 L 0.381876 0.352545 L 0.362609 0.372926 L 0.345186 0.39535 L 0.329745 0.419656 L 0.316378 0.445629 L 0.30527 0.473054 L 0.296559 0.501555 L 0.290244 0.530915 L 0.286418 0.560868 L 0.285128 0.591143 L 0.286418 0.621418 L 0.290244 0.65137 L 0.296559 0.680731 L 0.30527 0.709285 L 0.316378 0.736657 L 0.329745 0.76263 L 0.345186 0.786936 L 0.362609 0.809413 L 0.381876 0.82974 L 0.402709 0.847755 L 0.424972 0.863349 L 0.448479 0.876309 L 0.472908 0.886472 L 0.498075 0.893839 L 0.523748 0.898303 L 0.549698 0.899808 M 0.50001 0.916693 L 0.534995 0.91465 L 0.569656 0.908681 L 0.603672 0.898733 L 0.636674 0.884967 L 0.66834 0.86749 L 0.698438 0.846464 L 0.726555 0.822104 L 0.752551 0.794625 L 0.776058 0.76435 L 0.796938 0.731494 L 0.81496 0.696433 L 0.82994 0.659436 L 0.841786 0.620934 L 0.850267 0.581302 L 0.855429 0.540864 L 0.857134 0.499995 L 0.855429 0.45918 L 0.850267 0.418688 L 0.841786 0.379056 L 0.82994 0.340554 L 0.81496 0.303611 L 0.796938 0.268496 L 0.776058 0.235694 L 0.752551 0.205365 L 0.726555 0.177886 L 0.698438 0.15358 L 0.66834 0.132554 L 0.636674 0.115024 L 0.603672 0.101257 L 0.569656 0.0913628 L 0.534995 0.0853401 L 0.50001 0.0833504 L 0.46498 0.0853401 L 0.430319 0.0913628 L 0.396349 0.101257 L 0.363346 0.115024 L 0.331635 0.132554 L 0.301583 0.15358 L 0.27342 0.177886 L 0.24747 0.205365 L 0.223917 0.235694 L 0.203037 0.268496 L 0.185015 0.303611 L 0.170035 0.340554 L 0.158235 0.379056 L 0.149708 0.418688 L 0.144592 0.45918 L 0.14284 0.499995 L 0.144592 0.540864 L 0.149708 0.581302 L 0.158235 0.620934 L 0.170035 0.659436 L 0.185015 0.696433 L 0.203037 0.731494 L 0.223917 0.76435 L 0.24747 0.794625 L 0.27342 0.822104 L 0.301583 0.846464 L 0.331635 0.86749 L 0.363346 0.884967 L 0.396349 0.898733 L 0.430319 0.908681 L 0.46498 0.91465 L 0.50001 0.916693 " transform="matrix(84.748232, 0, 0, 72.641342, 0, 0)"/>
</svg>
